<?xml version="1.0" standalone="no"?>
<!DOCTYPE svg PUBLIC "-//W3C//DTD SVG 20010904//EN"
 "http://www.w3.org/TR/2001/REC-SVG-20010904/DTD/svg10.dtd">
<svg version="1.0" xmlns="http://www.w3.org/2000/svg"
 width="500.000000pt" height="500.000000pt" viewBox="0 0 500.000000 500.000000"
 preserveAspectRatio="xMidYMid meet">

<g transform="translate(0.000000,500.000000) scale(0.100000,-0.100000)"
fill="#000000" stroke="none">
<path d="M872 2728 c-17 -17 -17 -369 0 -386 19 -19 66 -15 78 7 5 11 10 64
10 117 l0 98 46 -62 c32 -43 53 -62 67 -62 29 0 36 6 82 70 l40 55 3 -105 c1
-57 8 -110 14 -117 6 -7 24 -13 39 -13 22 0 32 6 39 26 13 34 13 340 0 365
-11 19 -55 26 -76 11 -5 -4 -39 -45 -73 -90 -35 -46 -67 -80 -71 -75 -3 4 -28
37 -55 73 -26 36 -57 73 -67 83 -23 20 -59 22 -76 5z"/>
</g>
</svg>
