<svg xmlns="http://www.w3.org/2000/svg" xmlns:xlink="http://www.w3.org/1999/xlink" viewBox="0,0,256,256" width="100px" height="100px"><g fill="#ffffff" fill-rule="nonzero" stroke="none" stroke-width="1" stroke-linecap="butt" stroke-linejoin="miter" stroke-miterlimit="10" stroke-dasharray="" stroke-dashoffset="0" font-family="none" font-weight="none" font-size="none" text-anchor="none" style="mix-blend-mode: normal"><g transform="scale(2.56,2.56)"><path d="M37,6c-0.693,0 -1.33717,0.35922 -1.70117,0.94922c-0.364,0.59 -0.39789,1.32531 -0.08789,1.94531l1.78906,3.57812v18.95703c-1.31,0.934 -3.347,2.21803 -5,3.20703v-20.16406l1.78906,-3.57812c0.31,-0.62 0.27711,-1.35727 -0.08789,-1.94727c-0.364,-0.589 -1.00817,-0.94727 -1.70117,-0.94727h-14c-0.693,0 -1.33717,0.35922 -1.70117,0.94922c-0.364,0.59 -0.39789,1.32531 -0.08789,1.94531l1.78906,3.57813v20.72656c-1.167,-0.494 -2.44283,-1.03745 -3.42383,-1.56445c0.105,-0.085 0.21045,-0.17091 0.31445,-0.25391c0.455,-0.367 0.88356,-0.71348 1.22656,-1.02148c0.482,-0.432 1.01466,-1.17105 0.84766,-2.24805c-0.045,-0.53 -0.29894,-1.02319 -0.71094,-1.36719c-0.362,-0.303 -0.81625,-0.46484 -1.28125,-0.46484c-0.119,0 -0.23842,0.01025 -0.35742,0.03125c-1.73,0.314 -3.05503,0.84044 -4.45703,1.39844c-0.521,0.207 -1.06516,0.42462 -1.66016,0.64063c-0.791,0.287 -1.31641,1.03791 -1.31641,1.87891v0.20117c0,0.124 0.0112,0.24714 0.0332,0.36914c0.823,4.378 3.57838,6.12036 4.48438,6.69336c1.568,0.992 4.30345,2.59614 6.43945,3.61914l-0.13281,13.40625l-1.79297,3.58789c-0.31,0.62 -0.27711,1.35531 0.08789,1.94531c0.363,0.59 1.00622,0.94922 1.69922,0.94922h14c0.693,0 1.33717,-0.35922 1.70117,-0.94922c0.364,-0.59 0.39789,-1.32531 0.08789,-1.94531l-1.78906,-3.57812v-13.01562c1.615,-0.546 3.384,-1.39145 5,-2.31445v19.41016l-1.78125,3.48242c-0.317,0.62 -0.28878,1.35913 0.07422,1.95313c0.364,0.595 1.01103,0.95703 1.70703,0.95703h14c0.693,0 1.33717,-0.35922 1.70117,-0.94922c0.364,-0.59 0.39789,-1.32531 0.08789,-1.94531l-1.78906,-3.57812v-26.73242c3.276,-1.236 4.93447,-1.46877 6.73047,-1.50977l0.91406,13.53125l-0.23047,-0.23047c-0.384,-0.383 -0.89702,-0.58594 -1.41602,-0.58594c-0.304,0 -0.60858,0.06894 -0.89258,0.21094c-0.77,0.385 -1.20794,1.21927 -1.08594,2.07227l2.24805,15.73438c-0.089,-0.012 -0.17953,-0.01758 -0.26953,-0.01758c-0.318,0 -0.63764,0.07547 -0.93164,0.23047c-0.776,0.409 -1.1942,1.27667 -1.0332,2.13867l6,32c0.178,0.949 1.00684,1.63086 1.96484,1.63086c0.029,0 0.05889,-0.00095 0.08789,-0.00195c0.994,-0.043 1.8053,-0.80883 1.9043,-1.79883l1.58008,-15.80078l0.01563,0.01562c0.383,0.382 0.89602,0.58594 1.41602,0.58594c0.276,0 0.55245,-0.05683 0.81445,-0.17383c0.757,-0.338 1.22764,-1.1095 1.18164,-1.9375l-0.71094,-12.77344l0.30078,0.29883c0.382,0.383 0.89311,0.58594 1.41211,0.58594c0.279,0 0.56117,-0.05969 0.82617,-0.17969c0.759,-0.344 1.22297,-1.12308 1.16797,-1.95508l-0.63672,-9.52539c0.204,0.208 0.39355,0.40947 0.56055,0.60547c0.024,0.028 0.04726,0.05408 0.07227,0.08008c0.558,0.588 1.39528,0.93945 2.23828,0.93945c0.18,0 0.35916,-0.01683 0.53516,-0.04883c1.49,-0.261 3.94969,-0.86449 5.17969,-1.27148c2.021,-0.609 3.37833,-1.11075 5.11133,-2.84375c0.266,-0.266 0.45116,-0.6008 0.53516,-0.9668c0.375,-1.637 0.40601,-1.83153 0.41602,-1.89453c0.444,-2.834 0.62739,-8.39242 0.77539,-12.85742c0.043,-1.308 0.08395,-2.52927 0.12695,-3.57227c0.02,-0.486 -0.13736,-0.96184 -0.44336,-1.33984c-1.986,-2.452 -5.81812,-8.28127 -7.07812,-10.19727l-0.07422,-0.11328c-0.757,-1.158 -2.03411,-1.85156 -3.41211,-1.85156c-0.4,0 -0.79759,0.05978 -1.18359,0.17578c-1.049,0.312 -2.42484,0.72328 -3.71484,1.11328v-1.29687c0,-1.105 -0.895,-2 -2,-2h-11.00195c-0.553,0 -1.08098,0.22981 -1.45898,0.63281c-0.378,0.403 -0.57211,0.94409 -0.53711,1.49609l0.25,3.86719c-2.052,0.176 -4.47791,0.63467 -6.25391,1.01367v-13.55664l1.71484,-3.5918c0.296,-0.62 0.25272,-1.34673 -0.11328,-1.92773c-0.367,-0.581 -1.00441,-0.93359 -1.69141,-0.93359zM38.20117,8h11.38867l-6.07227,3.41602zM50.64453,8.55469l-1.64453,3.44531v16.51953c0,0 6.35578,-1.59766 9.80078,-1.59766c0.205,0 0.40098,0.00558 0.58398,0.01758l-0.35156,-5.41211l4.97461,3.72852l0.35742,11.26758c0.00863,0.27614 0.23948,0.493 0.51563,0.48438c0.27614,-0.00863 0.493,-0.23948 0.48438,-0.51562l-0.35742,-11.24805l4.99219,-3.74414v3.5c1.68,-0.52 4.53906,-1.38039 6.28906,-1.90039c0.203,-0.061 0.40933,-0.08984 0.61133,-0.08984c0.692,0 1.34523,0.34717 1.74023,0.95117c1.21,1.84 5.17953,7.88875 7.26953,10.46875c-0.19,4.6 -0.33086,12.69117 -0.88086,16.20117c-0.03,0.19 -0.38867,1.75977 -0.38867,1.75977c-1.37,1.37 -2.34078,1.75961 -4.30078,2.34961c-1.17,0.39 -3.55969,0.96898 -4.92969,1.20898c-0.061,0.011 -0.12164,0.01758 -0.18164,0.01758c-0.325,0 -0.62806,-0.14741 -0.78906,-0.31641c-1.2,-1.41 -3.06945,-2.81227 -4.43945,-4.57227l1,14.92188l-4,-4l1,18l-3,-3l-1.69922,17.00195l-1.22461,-21.21875l2.07031,2.07031c0.14905,0.14916 0.37566,0.18879 0.56649,0.09907c0.19083,-0.08973 0.30486,-0.28952 0.28507,-0.49946l-1.86914,-19.61719l2.01758,2.01758c0.14501,0.14511 0.36393,0.18693 0.55221,0.1055c0.18828,-0.08143 0.30774,-0.2696 0.3013,-0.47464l-0.19141,-6.00195c-0.0025,-0.13506 -0.05954,-0.26337 -0.15814,-0.35571c-0.0986,-0.09234 -0.23036,-0.14086 -0.3653,-0.13452c-0.27547,0.01269 -0.48867,0.24599 -0.47656,0.52148l0.15039,4.73828l-2.10547,-2.10547c-0.14905,-0.14916 -0.37566,-0.18879 -0.56649,-0.09907c-0.19083,0.08973 -0.30486,0.28952 -0.28507,0.49946l1.86914,19.61719l-2.01758,-2.01758c-0.1467,-0.14735 -0.36928,-0.18854 -0.55901,-0.10345c-0.18972,0.08509 -0.30699,0.27871 -0.29451,0.48626l1.23438,21.38281l-5.23437,-27.91211l3,3l-3,-21l4,4l-1.40039,-20.7207c-0.337,0 -0.6577,-0.00195 -0.9707,-0.00195c-2.581,0 -4.56791,0.11034 -9.62891,2.15234v28.57031l1.75195,3.50586l-6.75195,-3.79883v-48.41406zM37.30469,8.61133l5.69531,3.66016v48.45703l-5.68359,3.6543l1.68359,-3.29297v-23.57031c-2.35,1.76 -6.26,3.89047 -9,4.48047v15l1.75195,3.50586l-6.75195,-3.79883v-18.20703c0.00212,-0.13532 -0.0507,-0.26572 -0.1464,-0.36141c-0.0957,-0.0957 -0.22609,-0.14852 -0.36141,-0.1464c-0.13261,0.00207 -0.25896,0.05673 -0.35127,0.15197c-0.0923,0.09523 -0.14299,0.22324 -0.14092,0.35584v18.22852l-5.69531,3.66016l1.69531,-3.38867l0.15039,-15.17969c-1.95,-0.78 -5.43181,-2.78358 -7.38281,-4.01758c-1.103,-0.698 -2.97089,-2.09305 -3.58789,-5.37305v-0.19922c2.15,-0.78 3.64102,-1.56117 5.79102,-1.95117c0,0.19 0.13255,0.30084 -0.18945,0.58984c-0.567,0.508 -1.50695,1.22428 -2.25195,1.86328c-0.653,0.56 -0.60163,1.58436 0.10938,2.06836c0.084,0.057 0.16795,0.11292 0.25195,0.16992c1.57,0.98 4.12867,1.96023 5.88867,2.74023c0.4,0.2 1.2207,0.28906 1.2207,0.28906v-24l-1.69531,-3.38867l5.69531,3.66016v9.18555c-0.00255,0.18032 0.09219,0.34804 0.24794,0.43894c0.15575,0.0909 0.34838,0.0909 0.50413,0c0.15575,-0.0909 0.25049,-0.25863 0.24794,-0.43894v-9.16406l6.75195,-3.79883l-1.75195,3.50586v24c0.78,-0.2 7.04,-4.00031 9,-5.57031v-20.42969zM19.20117,10h11.38867l-6.07227,3.41602zM60.00195,21h8.99609l-4.49805,3.375zM24.49219,26.01563c-0.27537,0.00431 -0.49542,0.23047 -0.49219,0.50586v4.95703c-0.00255,0.18032 0.09219,0.34804 0.24794,0.43894c0.15575,0.0909 0.34838,0.0909 0.50413,0c0.15575,-0.0909 0.25049,-0.25863 0.24794,-0.43894v-4.95703c0.00158,-0.13498 -0.05147,-0.26487 -0.14711,-0.36014c-0.09564,-0.09527 -0.22573,-0.14782 -0.3607,-0.14572zM75.64453,27.06445c0,0 -3.88548,0.54355 -5.64648,0.93555v20.43555c0.783,0.978 3.42506,2.65691 5.03906,3.50391c0.018,0.034 0.04131,0.04883 0.07031,0.04883c0.01466,0 0.03734,-0.02025 0.05469,-0.02734l0.00391,0.01172c0,0 1.30532,-0.44295 2.66211,-1.04883c0.67839,-0.30294 1.37012,-0.64508 1.9375,-1.00781c0.56738,-0.36273 1.05362,-0.69215 1.2168,-1.2832c0.16359,-0.59285 0.27711,-1.68079 0.39648,-3.0918c0.11938,-1.411 0.22841,-3.10413 0.32031,-4.73633c0.1838,-3.26439 0.30078,-6.28516 0.30078,-6.28516c0.00502,-0.12272 -0.03531,-0.24299 -0.11328,-0.33789l-5.52148,-6.70703c-0.02901,-0.07549 -0.06724,-0.14537 -0.13477,-0.21289c-0.03504,-0.03504 -0.07048,-0.05645 -0.10547,-0.08008c-0.16072,-0.10855 -0.31951,-0.11719 -0.48047,-0.11719zM74.63086,29.23438c0.706,3.51 1.16602,6.99391 1.16602,12.00391c0,1.231 -0.75548,5.49638 -1.27148,8.10938c-1.023,-0.624 -1.96939,-1.28409 -2.52539,-1.74609v-17.94922c0.89,-0.154 1.87186,-0.30497 2.63086,-0.41797zM76.69727,29.45117l4.29297,5.21875c-0.0068,0.17431 -0.1114,2.92288 -0.28906,6.07813c-0.0916,1.62681 -0.20036,3.31424 -0.31836,4.70898c-0.118,1.39475 -0.26282,2.53901 -0.36523,2.91016c-0.0088,0.03195 -0.29583,0.3885 -0.79102,0.70508c-0.49518,0.31658 -1.15428,0.64619 -1.80664,0.9375c-0.43955,0.19628 -0.81261,0.33846 -1.19727,0.49023c0.11888,-0.22387 0.20508,-0.40519 0.20508,-0.45508c0,0 1.36914,-6.84869 1.36914,-8.80469c0,-4.95085 -0.46161,-8.48567 -1.09961,-11.78906zM64.93555,38.99414c-0.2747,0.01373 -0.48674,0.24671 -0.47461,0.52148l0.06445,2.0293c0.00917,0.27614 0.24046,0.49257 0.5166,0.4834c0.27614,-0.00917 0.49257,-0.24046 0.4834,-0.5166l-0.06641,-2.02734c-0.0025,-0.13506 -0.05954,-0.26337 -0.15814,-0.35571c-0.0986,-0.09234 -0.23036,-0.14086 -0.3653,-0.13452zM65.08984,43.82617c-0.27547,0.01269 -0.48868,0.24599 -0.47656,0.52148l0.09766,3.06445c0.00863,0.27614 0.23948,0.493 0.51563,0.48438c0.27614,-0.00863 0.493,-0.23948 0.48438,-0.51562l-0.09766,-3.06445c-0.0025,-0.13506 -0.05954,-0.26337 -0.15814,-0.35571c-0.0986,-0.09234 -0.23036,-0.14086 -0.3653,-0.13452zM24.51758,57.58398l6.07227,3.41602h-11.38867zM43.51758,61.58398l6.07227,3.41602h-11.38867z"></path></g></g></svg>